<svg xmlns="http://www.w3.org/2000/svg" width="320" height="320" viewBox="0 0 320 320" role="img">
  <defs>
    <linearGradient id="gradA" x1="0" y1="0" x2="1" y2="1">
      <stop offset="0%" stop-color="#0EA5E9"/>
      <stop offset="100%" stop-color="#14B8A6"/>
    </linearGradient>
    <linearGradient id="gradB" x1="0" y1="0" x2="1" y2="1">
      <stop offset="0%" stop-color="#1D4ED8"/>
      <stop offset="100%" stop-color="#0F766E"/>
    </linearGradient>
    <filter id="softShadow" x="-20%" y="-20%" width="140%" height="140%">
      <feDropShadow dx="0" dy="8" stdDeviation="10" flood-color="#0F172A" flood-opacity="0.12"/>
    </filter>
  </defs>

  <g transform="translate(20 20)" filter="url(#softShadow)">
    <rect x="0" y="0" width="280" height="280" rx="64" fill="#F8FAFC"/>
    <rect x="0" y="0" width="280" height="280" rx="64" fill="url(#gradA)" opacity="0.08"/>

    <path d="M110 60h60v20l-15 25v35l50 75c14 22-2 50-28 50H93c-26 0-42-28-28-50l50-75v-35l-15-25V60Z"
          fill="#FFFFFF" stroke="url(#gradB)" stroke-width="10" stroke-linejoin="round"/>

    <path d="M105 200c12-12 24-18 38-18 16 0 24 9 39 9 12 0 19-4 27-9l20 30c9 14-2 30-18 30H93c-16 0-27-16-18-30l20-30Z"
          fill="url(#gradA)" opacity="0.95"/>

    <circle cx="120" cy="165" r="8" fill="#7DD3FC"/>
    <circle cx="160" cy="150" r="6" fill="#5EEAD4"/>
    <circle cx="185" cy="170" r="7" fill="#A5F3FC"/>

    <g transform="translate(200 50)">
      <circle cx="0" cy="0" r="32" fill="#FFFFFF"/>
      <path d="M-6 -20h12v14h14v12H6v14H-6V6h-14V-6h14V-20Z" fill="url(#gradB)"/>
    </g>

    <path d="M95 150l30 30 70-75" fill="none" stroke="url(#gradB)" stroke-width="12" stroke-linecap="round" stroke-linejoin="round"/>
  </g>
</svg>
